<mxfile host="app.diagrams.net" modified="2022-07-22T10:06:48.450Z" agent="5.0 (Windows)" etag="Mcx2maw4gySZd29Kvqe0" version="20.1.4" type="github">
  <diagram id="GUee9Opz0NuK8Jt2TQdb" name="PÃ¡gina-1">
    <mxGraphModel dx="1117" dy="589" grid="1" gridSize="10" guides="1" tooltips="1" connect="1" arrows="1" fold="1" page="1" pageScale="1" pageWidth="1169" pageHeight="827" math="0" shadow="0">
      <root>
        <mxCell id="0" />
        <mxCell id="1" parent="0" />
        <mxCell id="Q2vSyxKnWXDdQIr5jQp7-1" value="Horarios" style="swimlane;childLayout=stackLayout;horizontal=1;startSize=30;horizontalStack=0;rounded=1;fontSize=14;fontStyle=0;strokeWidth=2;resizeParent=0;resizeLast=1;shadow=0;dashed=0;align=center;" vertex="1" parent="1">
          <mxGeometry x="812" y="148" width="160" height="120" as="geometry" />
        </mxCell>
        <mxCell id="Q2vSyxKnWXDdQIr5jQp7-2" value="+id_horario&#xa;+hora&#xa;+dia" style="align=left;strokeColor=none;fillColor=none;spacingLeft=4;fontSize=12;verticalAlign=top;resizable=0;rotatable=0;part=1;fontStyle=0" vertex="1" parent="Q2vSyxKnWXDdQIr5jQp7-1">
          <mxGeometry y="30" width="160" height="90" as="geometry" />
        </mxCell>
        <mxCell id="Q2vSyxKnWXDdQIr5jQp7-3" value="Asignaturas" style="swimlane;childLayout=stackLayout;horizontal=1;startSize=30;horizontalStack=0;rounded=1;fontSize=14;fontStyle=0;strokeWidth=2;resizeParent=0;resizeLast=1;shadow=0;dashed=0;align=center;" vertex="1" parent="1">
          <mxGeometry x="213" y="148" width="160" height="88" as="geometry" />
        </mxCell>
        <mxCell id="Q2vSyxKnWXDdQIr5jQp7-4" value="+nombre&#xa;+cod_centro&#xa;+cod_euro" style="align=left;strokeColor=none;fillColor=none;spacingLeft=4;fontSize=12;verticalAlign=top;resizable=0;rotatable=0;part=1;" vertex="1" parent="Q2vSyxKnWXDdQIr5jQp7-3">
          <mxGeometry y="30" width="160" height="58" as="geometry" />
        </mxCell>
        <mxCell id="Q2vSyxKnWXDdQIr5jQp7-5" value="Profesorado" style="swimlane;childLayout=stackLayout;horizontal=1;startSize=30;horizontalStack=0;rounded=1;fontSize=14;fontStyle=0;strokeWidth=2;resizeParent=0;resizeLast=1;shadow=0;dashed=0;align=center;" vertex="1" parent="1">
          <mxGeometry x="213" y="477" width="160" height="166" as="geometry" />
        </mxCell>
        <mxCell id="Q2vSyxKnWXDdQIr5jQp7-6" value="+nom_prof&#xa;+direccion&#xa;+telefono&#xa;+email&#xa;+dni&#xa;+num_ss&#xa;+cod_prof&#xa;&#xa;&#xa;&#xa;" style="align=left;strokeColor=none;fillColor=none;spacingLeft=4;fontSize=12;verticalAlign=top;resizable=0;rotatable=0;part=1;" vertex="1" parent="Q2vSyxKnWXDdQIr5jQp7-5">
          <mxGeometry y="30" width="160" height="136" as="geometry" />
        </mxCell>
        <mxCell id="Q2vSyxKnWXDdQIr5jQp7-7" value="Ciclos" style="swimlane;childLayout=stackLayout;horizontal=1;startSize=30;horizontalStack=0;rounded=1;fontSize=14;fontStyle=0;strokeWidth=2;resizeParent=0;resizeLast=1;shadow=0;dashed=0;align=center;" vertex="1" parent="1">
          <mxGeometry x="840" y="477" width="160" height="81" as="geometry" />
        </mxCell>
        <mxCell id="Q2vSyxKnWXDdQIr5jQp7-8" value="+Nombre&#xa;+cod_ciclo&#xa;" style="align=left;strokeColor=none;fillColor=none;spacingLeft=4;fontSize=12;verticalAlign=top;resizable=0;rotatable=0;part=1;" vertex="1" parent="Q2vSyxKnWXDdQIr5jQp7-7">
          <mxGeometry y="30" width="160" height="51" as="geometry" />
        </mxCell>
        <mxCell id="Q2vSyxKnWXDdQIr5jQp7-9" value="Aulas" style="swimlane;childLayout=stackLayout;horizontal=1;startSize=30;horizontalStack=0;rounded=1;fontSize=14;fontStyle=0;strokeWidth=2;resizeParent=0;resizeLast=1;shadow=0;dashed=0;align=center;" vertex="1" parent="1">
          <mxGeometry x="815" y="294" width="160" height="120" as="geometry" />
        </mxCell>
        <mxCell id="Q2vSyxKnWXDdQIr5jQp7-10" value="+cod_aulas&#xa;+nombre&#xa;+num_aula&#xa;+metros_aula&#xa;" style="align=left;strokeColor=none;fillColor=none;spacingLeft=4;fontSize=12;verticalAlign=top;resizable=0;rotatable=0;part=1;" vertex="1" parent="Q2vSyxKnWXDdQIr5jQp7-9">
          <mxGeometry y="30" width="160" height="90" as="geometry" />
        </mxCell>
        <mxCell id="Q2vSyxKnWXDdQIr5jQp7-11" value="" style="endArrow=none;html=1;rounded=0;exitX=1;exitY=0;exitDx=0;exitDy=0;entryX=0;entryY=0.5;entryDx=0;entryDy=0;" edge="1" parent="1" source="Q2vSyxKnWXDdQIr5jQp7-4" target="Q2vSyxKnWXDdQIr5jQp7-13">
          <mxGeometry relative="1" as="geometry">
            <mxPoint x="389" y="178" as="sourcePoint" />
            <mxPoint x="549" y="178" as="targetPoint" />
          </mxGeometry>
        </mxCell>
        <mxCell id="Q2vSyxKnWXDdQIr5jQp7-12" value="" style="endArrow=none;html=1;rounded=0;entryX=0;entryY=0.25;entryDx=0;entryDy=0;exitX=0.5;exitY=1;exitDx=0;exitDy=0;edgeStyle=orthogonalEdgeStyle;" edge="1" parent="1" source="Q2vSyxKnWXDdQIr5jQp7-13" target="Q2vSyxKnWXDdQIr5jQp7-9">
          <mxGeometry relative="1" as="geometry">
            <mxPoint x="605" y="324" as="sourcePoint" />
            <mxPoint x="769" y="335" as="targetPoint" />
          </mxGeometry>
        </mxCell>
        <mxCell id="Q2vSyxKnWXDdQIr5jQp7-13" value="Ocupa" style="shape=rhombus;perimeter=rhombusPerimeter;whiteSpace=wrap;html=1;align=center;" vertex="1" parent="1">
          <mxGeometry x="527" y="148" width="120" height="60" as="geometry" />
        </mxCell>
        <mxCell id="Q2vSyxKnWXDdQIr5jQp7-14" value="" style="endArrow=none;html=1;rounded=0;exitX=1;exitY=0.5;exitDx=0;exitDy=0;entryX=0;entryY=0.25;entryDx=0;entryDy=0;" edge="1" parent="1" source="Q2vSyxKnWXDdQIr5jQp7-13" target="Q2vSyxKnWXDdQIr5jQp7-1">
          <mxGeometry relative="1" as="geometry">
            <mxPoint x="653" y="177.5" as="sourcePoint" />
            <mxPoint x="807" y="177.5" as="targetPoint" />
          </mxGeometry>
        </mxCell>
        <mxCell id="Q2vSyxKnWXDdQIr5jQp7-15" value="IMPARTE" style="shape=rhombus;perimeter=rhombusPerimeter;whiteSpace=wrap;html=1;align=center;" vertex="1" parent="1">
          <mxGeometry x="233" y="334" width="120" height="60" as="geometry" />
        </mxCell>
        <mxCell id="Q2vSyxKnWXDdQIr5jQp7-16" value="" style="endArrow=none;html=1;rounded=0;exitX=0.5;exitY=1;exitDx=0;exitDy=0;entryX=0.5;entryY=0;entryDx=0;entryDy=0;" edge="1" parent="1" source="Q2vSyxKnWXDdQIr5jQp7-4" target="Q2vSyxKnWXDdQIr5jQp7-15">
          <mxGeometry relative="1" as="geometry">
            <mxPoint x="373" y="296" as="sourcePoint" />
            <mxPoint x="538" y="296" as="targetPoint" />
          </mxGeometry>
        </mxCell>
        <mxCell id="Q2vSyxKnWXDdQIr5jQp7-17" value="" style="endArrow=none;html=1;rounded=0;exitX=0.5;exitY=1;exitDx=0;exitDy=0;entryX=0.5;entryY=0;entryDx=0;entryDy=0;" edge="1" parent="1" source="Q2vSyxKnWXDdQIr5jQp7-15" target="Q2vSyxKnWXDdQIr5jQp7-5">
          <mxGeometry relative="1" as="geometry">
            <mxPoint x="296" y="398" as="sourcePoint" />
            <mxPoint x="296" y="496" as="targetPoint" />
          </mxGeometry>
        </mxCell>
        <mxCell id="Q2vSyxKnWXDdQIr5jQp7-18" value="Curso" style="swimlane;childLayout=stackLayout;horizontal=1;startSize=30;horizontalStack=0;rounded=1;fontSize=14;fontStyle=0;strokeWidth=2;resizeParent=0;resizeLast=1;shadow=0;dashed=0;align=center;" vertex="1" parent="1">
          <mxGeometry x="604" y="477" width="160" height="77" as="geometry" />
        </mxCell>
        <mxCell id="Q2vSyxKnWXDdQIr5jQp7-19" value="+nom_curso&#xa;+cod_curso&#xa;" style="align=left;strokeColor=none;fillColor=none;spacingLeft=4;fontSize=12;verticalAlign=top;resizable=0;rotatable=0;part=1;" vertex="1" parent="Q2vSyxKnWXDdQIr5jQp7-18">
          <mxGeometry y="30" width="160" height="47" as="geometry" />
        </mxCell>
        <mxCell id="Q2vSyxKnWXDdQIr5jQp7-29" value="" style="endArrow=none;html=1;rounded=0;exitX=1;exitY=0.5;exitDx=0;exitDy=0;entryX=0;entryY=0;entryDx=0;entryDy=0;startArrow=none;" edge="1" parent="1" source="Q2vSyxKnWXDdQIr5jQp7-32" target="Q2vSyxKnWXDdQIr5jQp7-19">
          <mxGeometry relative="1" as="geometry">
            <mxPoint x="386" y="506" as="sourcePoint" />
            <mxPoint x="546" y="506" as="targetPoint" />
          </mxGeometry>
        </mxCell>
        <mxCell id="Q2vSyxKnWXDdQIr5jQp7-30" value="" style="endArrow=none;html=1;rounded=0;exitX=1;exitY=0;exitDx=0;exitDy=0;entryX=0;entryY=0;entryDx=0;entryDy=0;dashed=1;" edge="1" parent="1" source="Q2vSyxKnWXDdQIr5jQp7-19" target="Q2vSyxKnWXDdQIr5jQp7-8">
          <mxGeometry relative="1" as="geometry">
            <mxPoint x="713" y="506" as="sourcePoint" />
            <mxPoint x="893" y="506" as="targetPoint" />
          </mxGeometry>
        </mxCell>
        <mxCell id="Q2vSyxKnWXDdQIr5jQp7-31" value="" style="endArrow=none;html=1;rounded=0;exitX=1;exitY=0.5;exitDx=0;exitDy=0;" edge="1" parent="1" source="Q2vSyxKnWXDdQIr5jQp7-15" target="tVx9SDu4j983D6Pf_-Z4-2">
          <mxGeometry relative="1" as="geometry">
            <mxPoint x="626" y="465" as="sourcePoint" />
            <mxPoint x="393" y="363.9999999999999" as="targetPoint" />
          </mxGeometry>
        </mxCell>
        <mxCell id="Q2vSyxKnWXDdQIr5jQp7-32" value="TUTORIZA" style="shape=rhombus;perimeter=rhombusPerimeter;whiteSpace=wrap;html=1;align=center;" vertex="1" parent="1">
          <mxGeometry x="417" y="477" width="120" height="60" as="geometry" />
        </mxCell>
        <mxCell id="Q2vSyxKnWXDdQIr5jQp7-33" value="" style="endArrow=none;html=1;rounded=0;exitX=1;exitY=0;exitDx=0;exitDy=0;entryX=0;entryY=0.5;entryDx=0;entryDy=0;" edge="1" parent="1" source="Q2vSyxKnWXDdQIr5jQp7-6" target="Q2vSyxKnWXDdQIr5jQp7-32">
          <mxGeometry relative="1" as="geometry">
            <mxPoint x="373" y="507" as="sourcePoint" />
            <mxPoint x="553" y="507" as="targetPoint" />
          </mxGeometry>
        </mxCell>
        <mxCell id="Q2vSyxKnWXDdQIr5jQp7-34" value="&lt;font style=&quot;font-size: 18px;&quot;&gt;&lt;b&gt;DIAGRAMA EJERCICIO 17&lt;/b&gt;&lt;/font&gt;" style="text;html=1;align=center;verticalAlign=middle;resizable=0;points=[];autosize=1;strokeColor=none;fillColor=none;" vertex="1" parent="1">
          <mxGeometry x="463" y="42" width="244" height="34" as="geometry" />
        </mxCell>
        <mxCell id="tVx9SDu4j983D6Pf_-Z4-2" value="fecha_fin" style="ellipse;whiteSpace=wrap;html=1;align=center;" vertex="1" parent="1">
          <mxGeometry x="373" y="370" width="100" height="40" as="geometry" />
        </mxCell>
        <mxCell id="tVx9SDu4j983D6Pf_-Z4-3" value="fecha_inicio" style="ellipse;whiteSpace=wrap;html=1;align=center;" vertex="1" parent="1">
          <mxGeometry x="373" y="310" width="100" height="40" as="geometry" />
        </mxCell>
        <mxCell id="tVx9SDu4j983D6Pf_-Z4-5" value="" style="endArrow=none;html=1;rounded=0;entryX=0;entryY=1;entryDx=0;entryDy=0;" edge="1" parent="1" target="tVx9SDu4j983D6Pf_-Z4-3">
          <mxGeometry relative="1" as="geometry">
            <mxPoint x="350" y="360" as="sourcePoint" />
            <mxPoint x="380" y="390" as="targetPoint" />
          </mxGeometry>
        </mxCell>
        <mxCell id="tVx9SDu4j983D6Pf_-Z4-12" value="1:1" style="text;html=1;align=center;verticalAlign=middle;resizable=0;points=[];autosize=1;strokeColor=none;fillColor=none;" vertex="1" parent="1">
          <mxGeometry x="250" y="435" width="40" height="30" as="geometry" />
        </mxCell>
        <mxCell id="tVx9SDu4j983D6Pf_-Z4-13" value="prerequisito" style="shape=rhombus;perimeter=rhombusPerimeter;whiteSpace=wrap;html=1;align=center;" vertex="1" parent="1">
          <mxGeometry x="60" y="208" width="120" height="60" as="geometry" />
        </mxCell>
        <mxCell id="tVx9SDu4j983D6Pf_-Z4-14" value="" style="endArrow=none;html=1;rounded=0;exitX=0;exitY=0;exitDx=0;exitDy=0;entryX=1;entryY=0;entryDx=0;entryDy=0;" edge="1" parent="1" source="Q2vSyxKnWXDdQIr5jQp7-4" target="tVx9SDu4j983D6Pf_-Z4-13">
          <mxGeometry relative="1" as="geometry">
            <mxPoint x="200" y="390" as="sourcePoint" />
            <mxPoint x="360" y="390" as="targetPoint" />
          </mxGeometry>
        </mxCell>
        <mxCell id="tVx9SDu4j983D6Pf_-Z4-15" value="" style="endArrow=none;html=1;rounded=0;exitX=1;exitY=1;exitDx=0;exitDy=0;entryX=0.187;entryY=1.062;entryDx=0;entryDy=0;entryPerimeter=0;" edge="1" parent="1" source="tVx9SDu4j983D6Pf_-Z4-13" target="Q2vSyxKnWXDdQIr5jQp7-4">
          <mxGeometry relative="1" as="geometry">
            <mxPoint x="200" y="390" as="sourcePoint" />
            <mxPoint x="360" y="390" as="targetPoint" />
          </mxGeometry>
        </mxCell>
        <mxCell id="tVx9SDu4j983D6Pf_-Z4-16" value="0:N" style="text;html=1;align=center;verticalAlign=middle;resizable=0;points=[];autosize=1;strokeColor=none;fillColor=none;" vertex="1" parent="1">
          <mxGeometry x="250" y="235" width="40" height="30" as="geometry" />
        </mxCell>
        <mxCell id="tVx9SDu4j983D6Pf_-Z4-17" value="0:N" style="text;html=1;align=center;verticalAlign=middle;resizable=0;points=[];autosize=1;strokeColor=none;fillColor=none;" vertex="1" parent="1">
          <mxGeometry x="150" y="165" width="40" height="30" as="geometry" />
        </mxCell>
        <mxCell id="tVx9SDu4j983D6Pf_-Z4-18" value="0:1" style="text;html=1;align=center;verticalAlign=middle;resizable=0;points=[];autosize=1;strokeColor=none;fillColor=none;" vertex="1" parent="1">
          <mxGeometry x="560" y="505" width="40" height="30" as="geometry" />
        </mxCell>
        <mxCell id="tVx9SDu4j983D6Pf_-Z4-19" value="" style="endArrow=none;html=1;rounded=0;entryX=0.5;entryY=1;entryDx=0;entryDy=0;" edge="1" parent="1" target="Q2vSyxKnWXDdQIr5jQp7-32">
          <mxGeometry relative="1" as="geometry">
            <mxPoint x="477" y="570" as="sourcePoint" />
            <mxPoint x="580" y="390" as="targetPoint" />
          </mxGeometry>
        </mxCell>
        <mxCell id="tVx9SDu4j983D6Pf_-Z4-20" value="antiguedad" style="ellipse;whiteSpace=wrap;html=1;align=center;" vertex="1" parent="1">
          <mxGeometry x="427" y="570" width="100" height="40" as="geometry" />
        </mxCell>
        <mxCell id="tVx9SDu4j983D6Pf_-Z4-22" value="1:1" style="text;html=1;align=center;verticalAlign=middle;resizable=0;points=[];autosize=1;strokeColor=none;fillColor=none;" vertex="1" parent="1">
          <mxGeometry x="370" y="515" width="40" height="30" as="geometry" />
        </mxCell>
        <mxCell id="tVx9SDu4j983D6Pf_-Z4-23" value="1:1" style="text;html=1;align=center;verticalAlign=middle;resizable=0;points=[];autosize=1;strokeColor=none;fillColor=none;" vertex="1" parent="1">
          <mxGeometry x="770" y="325" width="40" height="30" as="geometry" />
        </mxCell>
        <mxCell id="tVx9SDu4j983D6Pf_-Z4-24" value="1:N" style="text;html=1;align=center;verticalAlign=middle;resizable=0;points=[];autosize=1;strokeColor=none;fillColor=none;" vertex="1" parent="1">
          <mxGeometry x="370" y="175" width="40" height="30" as="geometry" />
        </mxCell>
        <mxCell id="tVx9SDu4j983D6Pf_-Z4-25" value="1:1" style="text;html=1;align=center;verticalAlign=middle;resizable=0;points=[];autosize=1;strokeColor=none;fillColor=none;" vertex="1" parent="1">
          <mxGeometry x="780" y="175" width="40" height="30" as="geometry" />
        </mxCell>
        <mxCell id="tVx9SDu4j983D6Pf_-Z4-26" value="1:1" style="text;html=1;align=center;verticalAlign=middle;resizable=0;points=[];autosize=1;strokeColor=none;fillColor=none;" vertex="1" parent="1">
          <mxGeometry x="770" y="285" width="40" height="30" as="geometry" />
        </mxCell>
        <mxCell id="tVx9SDu4j983D6Pf_-Z4-27" value="1:1" style="text;html=1;align=center;verticalAlign=middle;resizable=0;points=[];autosize=1;strokeColor=none;fillColor=none;" vertex="1" parent="1">
          <mxGeometry x="370" y="155" width="40" height="30" as="geometry" />
        </mxCell>
        <mxCell id="tVx9SDu4j983D6Pf_-Z4-28" value="1:1" style="text;html=1;align=center;verticalAlign=middle;resizable=0;points=[];autosize=1;strokeColor=none;fillColor=none;" vertex="1" parent="1">
          <mxGeometry x="780" y="145" width="40" height="30" as="geometry" />
        </mxCell>
      </root>
    </mxGraphModel>
  </diagram>
</mxfile>
